#!OML:ASF G:\JayActor3\Patient Classification 1\Patient 1\Session 6\male.ASF
:FULLY-SPECIFIED
:DEGREES
480
root 24.8528 16.1583 -13.082 -2.56308 -56.3027 -3.92466
lowerback 3.48915 -2.44328 8.70129
upperback 6.15762 -3.59095 4.9197
thorax 4.29498 -1.6267 0.262396
lowerneck 7.44946 0.676287 5.48408
upperneck 11.9401 1.75746 -10.9126
head 2.42913 0.73358 -4.24121
rclavicle -2.14687e-014 1.59028e-014
rhumerus -22.646 3.56613 -81.7836
rradius 33.297
rwrist 2.72705
rhand -21.8893 -10.1099
rfingers 7.12502
rthumb 4.51565 -40.0418
lclavicle -2.14687e-014 1.59028e-014
lhumerus -36.3385 -6.8269 85.8205
lradius 38.1916
lwrist 26.7586
lhand -11.6301 10.5293
lfingers 7.12502
lthumb 14.4135 40.0088
rfemur -5.07622 2.25518 25.5215
rtibia 35.4299
rfoot -24.6424 -17.5113
rtoes 1.81657
lfemur -20.037 15.8656 -15.8501
ltibia 70.6203
lfoot -7.1321 1.50026
ltoes -11.6612
481
root 24.7173 16.1685 -13.0173 -2.29082 -56.2051 -4.28612
lowerback 3.47118 -2.22196 8.86139
upperback 6.03953 -3.2744 4.81848
thorax 4.18372 -1.46176 0.0681594
lowerneck 6.98713 0.585529 5.15291
upperneck 12.4489 1.61369 -10.5551
head 2.64174 0.633069 -4.07592
rclavicle 2.68359e-014 -7.95139e-015
rhumerus -22.6815 4.13045 -82.2356
rradius 33.8672
rwrist 2.39014
rhand -21.8623 -10.02
rfingers 7.12502
rthumb 4.54177 -39.9513
lclavicle 2.68359e-014 -7.95139e-015
lhumerus -36.7018 -6.96418 85.2203
lradius 38.386
lwrist 26.8923
lhand -11.3408 10.7379
lfingers 7.12502
lthumb 14.6922 40.1973
rfemur -4.18265 2.12927 25.8616
rtibia 34.914
rfoot -24.8032 -17.4931
rtoes 1.67402
lfemur -21.2155 15.9288 -16.3111
ltibia 69.3861
lfoot -7.84697 1.84252
ltoes -12.1057
482
root 24.5815 16.1794 -12.9524 -2.00107 -56.1153 -4.65367
lowerback 3.45413 -2.00495 8.99946
upperback 5.923 -2.96402 4.71369
thorax 4.07693 -1.3011 -0.117982
lowerneck 6.53768 0.500255 4.79763
upperneck 12.923 1.47368 -10.1799
head 2.8437 0.536137 -3.90206
rclavicle -1.43125e-014 -4.77083e-014
rhumerus -22.7285 4.7655 -82.6863
rradius 34.4754
rwrist 2.02679
rhand -21.8474 -9.91628
rfingers 7.12502
rthumb 4.55609 -39.8473
lclavicle -1.43125e-014 -4.77083e-014
lhumerus -37.0371 -7.08275 84.6079
lradius 38.6309
lwrist 27.0297
lhand -11.0657 10.993
lfingers 7.12502
lthumb 14.9572 40.4329
rfemur -3.30656 1.95692 26.1908
rtibia 34.3874
rfoot -24.8974 -17.455
rtoes 1.39824
lfemur -22.292 15.9655 -16.767
ltibia 67.8871
lfoot -8.49986 2.15277
ltoes -12.4981
483
root 24.4449 16.1918 -12.8865 -1.68997 -56.0413 -5.0367
lowerback 3.43154 -1.78815 9.13393
upperback 5.81319 -2.65559 4.60148
thorax 3.98299 -1.14131 -0.310357
lowerneck 6.09691 0.417565 4.42365
upperneck 13.3671 1.33361 -9.7796
head 3.03682 0.441198 -3.71817
rclavicle -1.47101e-014 1.27222e-014
rhumerus -22.7791 5.44734 -83.1341
rradius 35.1176
rwrist 1.65435
rhand -21.8227 -9.82965
rfingers 7.12502
rthumb 4.57997 -39.7601
lclavicle -1.47101e-014 1.27222e-014
lhumerus -37.3442 -7.18688 83.9835
lradius 38.9172
lwrist 27.1608
lhand -10.8203 11.236
lfingers 7.12502
lthumb 15.1936 40.6581
rfemur -2.42704 1.74492 26.5074
rtibia 33.8284
rfoot -24.9225 -17.3762
rtoes 1.02842
lfemur -23.2433 15.9875 -17.2025
ltibia 66.117
lfoot -9.0947 2.42261
ltoes -12.7947
484
root 24.3077 16.2055 -12.8191 -1.34318 -55.9816 -5.45941
lowerback 3.40445 -1.57544 9.28249
upperback 5.71257 -2.35438 4.48151
thorax 3.90318 -0.984227 -0.51875
lowerneck 5.6749 0.336032 4.05393
upperneck 13.7833 1.1936 -9.36758
head 3.22013 0.349152 -3.53221
rclavicle 1.10524e-013 -3.65764e-014
rhumerus -22.8268 6.17536 -83.5839
rradius 35.7779
rwrist 1.29199
rhand -21.7786 -9.75927
rfingers 7.12502
rthumb 4.62254 -39.6888
lclavicle 1.10524e-013 -3.65764e-014
lhumerus -37.63 -7.26938 83.3364
lradius 39.2375
lwrist 27.279
lhand -10.6349 11.4442
lfingers 7.12502
lthumb 15.3722 40.8527
rfemur -1.5267 1.49115 26.8202
rtibia 33.2195
rfoot -24.8642 -17.252
rtoes 0.589805
lfemur -24.056 15.9942 -17.5944
ltibia 64.082
lfoot -9.6453 2.65067
ltoes -12.9859
485
root 24.1698 16.2198 -12.7498 -0.949905 -55.935 -5.93455
lowerback 3.36918 -1.36703 9.45883
upperback 5.62024 -2.06101 4.35401
thorax 3.83861 -0.829591 -0.750361
lowerneck 5.27584 0.255467 3.70537
upperneck 14.1723 1.05436 -8.95159
head 3.39309 0.261002 -3.34931
rclavicle -5.22804e-014 1.90833e-014
rhumerus -22.8703 6.9302 -84.0326
rradius 36.4457
rwrist 0.949774
rhand -21.7053 -9.69688
rfingers 7.12502
rthumb 4.69329 -39.6249
lclavicle -5.22804e-014 1.90833e-014
lhumerus -37.899 -7.3276 82.665
lradius 39.58
lwrist 27.3674
lhand -10.4847 11.55
lfingers 7.12502
lthumb 15.5168 40.9474
rfemur -0.598544 1.19411 27.1324
rtibia 32.5523
rfoot -24.7072 -17.0826
rtoes 0.112739
lfemur -24.7283 15.9836 -17.93
ltibia 61.7949
lfoot -10.1645 2.84028
ltoes -13.1407
486
root 24.0312 16.2335 -12.6787 -0.500988 -55.8991 -6.47072
lowerback 3.31623 -1.16843 9.66053
upperback 5.53903 -1.78476 4.22468
thorax 3.79747 -0.681937 -0.997945
lowerneck 4.89709 0.183865 3.37057
upperneck 14.5389 0.926148 -8.53119
head 3.55805 0.181237 -3.16783
rclavicle 9.10434e-014 7.95139e-015
rhumerus -22.8955 7.71953 -84.4767
rradius 37.1147
rwrist 0.616091
rhand -21.6737 -9.59109
rfingers 7.12502
rthumb 4.72381 -39.5184
lclavicle 9.10434e-014 7.95139e-015
lhumerus -38.1506 -7.33581 81.9657
lradius 39.9353
lwrist 27.4209
lhand -10.3632 11.5386
lfingers 7.12502
lthumb 15.6339 40.9269
rfemur 0.356889 0.860141 27.45
rtibia 31.828
rfoot -24.4655 -16.87
rtoes -0.38565
lfemur -25.268 15.9543 -18.1971
ltibia 59.2783
lfoot -10.6661 2.98059
ltoes -13.2595
487
root 23.8922 16.2456 -12.6059 0.0095507 -55.8675 -7.06529
lowerback 3.23631 -0.978903 9.88208
upperback 5.46573 -1.52571 4.0961
thorax 3.7818 -0.541433 -1.25571
lowerneck 4.54496 0.121965 3.06367
upperneck 14.8818 0.810412 -8.11211
head 3.7135 0.111205 -2.99169
rclavicle 5.84427e-014 2.70347e-014
rhumerus -22.9002 8.52067 -84.9087
rradius 37.7899
rwrist 0.247441
rhand -21.5634 -9.52279
rfingers 7.12502
rthumb 4.83035 -39.4477
lclavicle 5.84427e-014 2.70347e-014
lhumerus -38.3945 -7.31828 81.255
lradius 40.3183
lwrist 27.4585
lhand -10.2506 11.4372
lfingers 7.12502
lthumb 15.7423 40.817
rfemur 1.3268 0.48445 27.7711
rtibia 31.0539
rfoot -24.1511 -16.6136
rtoes -0.870804
lfemur -25.6965 15.8938 -18.3957
ltibia 56.5579
lfoot -11.1589 3.06897
ltoes -13.4124
488
root 23.7526 16.2552 -12.5318 0.586767 -55.8366 -7.71558
lowerback 3.1205 -0.797978 10.1166
upperback 5.39902 -1.28447 3.96961
thorax 3.79512 -0.40842 -1.51832
lowerneck 4.22186 0.0728822 2.78879
upperneck 15.1989 0.71113 -7.69638
head 3.85833 0.0530459 -2.8219
rclavicle 1.67178e-013 -3.49861e-014
rhumerus -22.8786 9.32918 -85.3257
rradius 38.4606
rwrist -0.153731
rhand -21.4298 -9.44301
rfingers 7.12502
rthumb 4.95932 -39.365
lclavicle 1.67178e-013 -3.49861e-014
lhumerus -38.6226 -7.2715 80.5359
lradius 40.7177
lwrist 27.4806
lhand -10.1033 11.2465
lfingers 7.12502
lthumb 15.8842 40.6151
rfemur 2.29898 0.0767125 28.0988
rtibia 30.2394
rfoot -23.7811 -16.3172
rtoes -1.30993
lfemur -26.0317 15.7851 -18.5228
ltibia 53.6633
lfoot -11.6426 3.10114
ltoes -13.6698
489
root 23.6126 16.2619 -12.4569 1.22021 -55.8015 -8.40605
lowerback 2.96462 -0.625684 10.3511
upperback 5.33862 -1.06172 3.84357
thorax 3.8392 -0.283413 -1.78018
lowerneck 3.92707 0.0367021 2.54348
upperneck 15.4913 0.627186 -7.27633
head 3.99265 0.00631519 -2.6555
rclavicle -5.77469e-014 1.59028e-014
rhumerus -22.8288 10.1212 -85.7251
rradius 39.1316
rwrist -0.580955
rhand -21.2369 -9.39763
rfingers 7.12502
rthumb 5.14561 -39.3152
lclavicle -5.77469e-014 1.59028e-014
lhumerus -38.8383 -7.22005 79.8244
lradius 41.1528
lwrist 27.5017
lhand -9.93478 11.0715
lfingers 7.12502
lthumb 16.0464 40.427
rfemur 3.26661 -0.356345 28.4272
rtibia 29.3949
rfoot -23.3916 -15.9791
rtoes -1.75084
lfemur -26.2859 15.607 -18.5816
ltibia 50.6272
lfoot -12.128 3.07973
ltoes -14.0377
490
root 23.4722 16.2652 -12.3812 1.91614 -55.7637 -9.14398
lowerback 2.77029 -0.461986 10.5892
upperback 5.28314 -0.85726 3.71807
thorax 3.91135 -0.166176 -2.04276
lowerneck 3.66626 0.0133712 2.33359
upperneck 15.7527 0.55858 -6.85769
head 4.11331 -0.0287675 -2.49502
rclavicle -1.43125e-014 4.6118e-014
rhumerus -22.7547 10.9066 -86.1127
rradius 39.7929
rwrist -1.00708
rhand -20.9757 -9.37383
rfingers 7.12502
rthumb 5.39783 -39.2851
lclavicle -1.43125e-014 4.6118e-014
lhumerus -39.0455 -7.17702 79.1273
lradius 41.6296
lwrist 27.52
lhand -9.77628 10.9663
lfingers 7.12502
lthumb 16.1991 40.3095
rfemur 4.22432 -0.813605 28.7604
rtibia 28.5298
rfoot -22.9826 -15.6016
rtoes -2.24
lfemur -26.47 15.3395 -18.5562
ltibia 47.4935
lfoot -12.6136 3.01418
ltoes -14.494
491
root 23.3317 16.2647 -12.3048 2.66868 -55.7248 -9.92536
lowerback 2.5448 -0.30862 10.8285
upperback 5.23095 -0.672321 3.592
thorax 4.00524 -0.05756 -2.30582
lowerneck 3.44067 0.000751735 2.15853
upperneck 15.9811 0.502524 -6.44433
head 4.21911 -0.0538879 -2.34144
rclavicle 4.11484e-014 -2.94201e-014
rhumerus -22.6675 11.6772 -86.494
rradius 40.4483
rwrist -1.3859
rhand -20.6669 -9.376
rfingers 7.12502
rthumb 5.69595 -39.2794
lclavicle 4.11484e-014 -2.94201e-014
lhumerus -39.2466 -7.14009 78.4434
lradius 42.1382
lwrist 27.5219
lhand -9.62442 10.9003
lfingers 7.12502
lthumb 16.3453 40.2315
rfemur 5.16892 -1.28505 29.0978
rtibia 27.6552
rfoot -22.562 -15.1829
rtoes -2.77143
lfemur -26.5919 14.9637 -18.4355
ltibia 44.3133
lfoot -13.0997 2.93341
ltoes -15.0018
492
root 23.1914 16.2602 -12.2282 3.48744 -55.6912 -10.7644
lowerback 2.29623 -0.163497 11.078
upperback 5.18227 -0.503501 3.46956
thorax 4.11684 0.0442252 -2.56978
lowerneck 3.24275 -0.00477882 1.9953
upperneck 16.1799 0.453751 -6.03176
head 4.31195 -0.0730784 -2.18962
rclavicle 7.15625e-015 -3.33958e-014
rhumerus -22.5716 12.4464 -86.8629
rradius 41.1023
rwrist -1.72014
rhand -20.3521 -9.39289
rfingers 7.12502
rthumb 5.99991 -39.2879
lclavicle 7.15625e-015 -3.33958e-014
lhumerus -39.4392 -7.10213 77.7771
lradius 42.6775
lwrist 27.505
lhand -9.46727 10.8817
lfingers 7.12502
lthumb 16.4966 40.2004
rfemur 6.09706 -1.75482 29.4512
rtibia 26.7787
rfoot -22.1363 -14.7231
rtoes -3.32519
lfemur -26.6678 14.4763 -18.1977
ltibia 41.1514
lfoot -13.5797 2.88888
ltoes -15.5275
493
root 23.0515 16.2512 -12.1515 4.34926 -55.6632 -11.6463
lowerback 2.04341 -0.0211738 11.3358
upperback 5.13543 -0.340413 3.34447
thorax 4.23472 0.143983 -2.83997
lowerneck 3.08546 -0.0136036 1.85645
upperneck 16.3374 0.39885 -5.62703
head 4.38535 -0.0922809 -2.04405
rclavicle -7.13637e-014 1.74931e-014
rhumerus -22.4937 13.1613 -87.2217
rradius 41.7738
rwrist -1.99667
rhand -20.021 -9.42455
rfingers 7.12502
rthumb 6.3195 -39.3103
lclavicle -7.13637e-014 1.74931e-014
lhumerus -39.6188 -7.07909 77.1275
lradius 43.2438
lwrist 27.4841
lhand -9.30478 10.9265
lfingers 7.12502
lthumb 16.653 40.2321
rfemur 7.01172 -2.20659 29.8192
rtibia 25.9141
rfoot -21.7144 -14.2301
rtoes -3.86821
lfemur -26.7056 13.8751 -17.8384
ltibia 38.0766
lfoot -14.046 2.93414
ltoes -16.1097
494
root 22.9119 16.2376 -12.0756 5.23587 -55.6207 -12.5613
lowerback 1.79281 0.10964 11.5882
upperback 5.09263 -0.194053 3.22092
thorax 4.35575 0.235562 -3.10484
lowerneck 2.96333 -0.024001 1.71797
upperneck 16.4597 0.339534 -5.22072
head 4.44224 -0.112022 -1.89783
rclavicle 8.3092e-014 5.32743e-014
rhumerus -22.4341 13.8326 -87.5706
rradius 42.4577
rwrist -2.22078
rhand -19.7893 -9.4114
rfingers 7.12502
rthumb 6.54319 -39.2903
lclavicle 8.3092e-014 5.32743e-014
lhumerus -39.7875 -7.06736 76.505
lradius 43.847
lwrist 27.5321
lhand -9.20354 11.0662
lfingers 7.12502
lthumb 16.7505 40.3636
rfemur 7.91671 -2.61305 30.2218
rtibia 25.0759
rfoot -21.3307 -13.7536
rtoes -4.4188
lfemur -26.72 13.1593 -17.3509
ltibia 35.1624
lfoot -14.4864 3.09287
ltoes -16.6745
